%TF.GenerationSoftware,Altium Limited,Altium Designer,20.1.11 (218)*%
G04 Layer_Color=65535*
%FSLAX43Y43*%
%MOMM*%
%TF.SameCoordinates,0902B8E9-5046-4627-B484-87D6A3C90C05*%
%TF.FilePolarity,Positive*%
%TF.FileFunction,Legend,Top*%
%TF.Part,Single*%
G01*
G75*
%TA.AperFunction,NonConductor*%
%ADD30C,0.152*%
%ADD31C,0.254*%
%ADD32C,0.127*%
%ADD33C,0.110*%
G36*
X28250Y47283D02*
Y47080D01*
Y46877D01*
Y46674D01*
Y46470D01*
Y46267D01*
Y46064D01*
Y45861D01*
X28454D01*
Y45658D01*
X27641D01*
Y45861D01*
Y46064D01*
Y46267D01*
Y46470D01*
Y46674D01*
Y46877D01*
X25202D01*
Y46674D01*
Y46470D01*
Y46267D01*
Y46064D01*
Y45861D01*
Y45658D01*
X24390D01*
Y45861D01*
Y46064D01*
Y46267D01*
Y46470D01*
Y46674D01*
Y46877D01*
Y47080D01*
Y47283D01*
Y47486D01*
X28250D01*
Y47283D01*
D02*
G37*
G36*
X23577Y45861D02*
Y45658D01*
Y45454D01*
Y45251D01*
Y45048D01*
X23374D01*
Y45251D01*
X21138D01*
Y45454D01*
Y45658D01*
Y45861D01*
Y46064D01*
X23577D01*
Y45861D01*
D02*
G37*
G36*
X32518Y47283D02*
X32721D01*
Y47080D01*
X32924D01*
Y46877D01*
Y46674D01*
X33127D01*
Y46470D01*
Y46267D01*
Y46064D01*
Y45861D01*
Y45658D01*
Y45454D01*
Y45251D01*
Y45048D01*
Y44845D01*
Y44642D01*
Y44438D01*
Y44235D01*
Y44032D01*
Y43829D01*
Y43626D01*
Y43422D01*
X32314D01*
Y43626D01*
X32518D01*
Y43829D01*
Y44032D01*
Y44235D01*
Y44438D01*
Y44642D01*
Y44845D01*
Y45048D01*
Y45251D01*
Y45454D01*
Y45658D01*
Y45861D01*
Y46064D01*
X32314D01*
Y46267D01*
Y46470D01*
X32111D01*
Y46674D01*
X31705D01*
Y46877D01*
X30079D01*
Y46674D01*
X29876D01*
Y46470D01*
Y46267D01*
Y46064D01*
Y45861D01*
Y45658D01*
Y45454D01*
Y45251D01*
Y45048D01*
Y44845D01*
Y44642D01*
Y44438D01*
Y44235D01*
Y44032D01*
Y43829D01*
X30079D01*
Y43626D01*
X29876D01*
Y43422D01*
X29063D01*
Y43626D01*
Y43829D01*
Y44032D01*
Y44235D01*
Y44438D01*
Y44642D01*
Y44845D01*
Y45048D01*
Y45251D01*
Y45454D01*
Y45658D01*
Y45861D01*
Y46064D01*
Y46267D01*
Y46470D01*
Y46674D01*
Y46877D01*
Y47080D01*
Y47283D01*
Y47486D01*
X32518D01*
Y47283D01*
D02*
G37*
G36*
X31502Y45861D02*
Y45658D01*
Y45454D01*
Y45251D01*
Y45048D01*
Y44845D01*
Y44642D01*
Y44438D01*
Y44235D01*
Y44032D01*
Y43829D01*
Y43626D01*
Y43422D01*
X30689D01*
Y43626D01*
X30892D01*
Y43829D01*
Y44032D01*
Y44235D01*
Y44438D01*
Y44642D01*
Y44845D01*
Y45048D01*
Y45251D01*
Y45454D01*
Y45658D01*
Y45861D01*
X30689D01*
Y46064D01*
X31502D01*
Y45861D01*
D02*
G37*
G36*
X26625D02*
Y45658D01*
Y45454D01*
Y45251D01*
Y45048D01*
Y44845D01*
Y44642D01*
Y44438D01*
Y44235D01*
Y44032D01*
Y43829D01*
Y43626D01*
Y43422D01*
X26015D01*
Y43626D01*
Y43829D01*
Y44032D01*
Y44235D01*
Y44438D01*
Y44642D01*
Y44845D01*
Y45048D01*
Y45251D01*
Y45454D01*
Y45658D01*
Y45861D01*
Y46064D01*
X26625D01*
Y45861D01*
D02*
G37*
G36*
X23577Y47283D02*
Y47080D01*
Y46877D01*
X20326D01*
Y46674D01*
Y46470D01*
Y46267D01*
Y46064D01*
Y45861D01*
Y45658D01*
Y45454D01*
Y45251D01*
Y45048D01*
Y44845D01*
Y44642D01*
X20529D01*
Y44438D01*
X23577D01*
Y44235D01*
Y44032D01*
Y43829D01*
Y43626D01*
Y43422D01*
X21138D01*
Y43626D01*
X20326D01*
Y43829D01*
X19919D01*
Y44032D01*
X19716D01*
Y44235D01*
Y44438D01*
X19513D01*
Y44642D01*
Y44845D01*
Y45048D01*
Y45251D01*
Y45454D01*
Y45658D01*
Y45861D01*
Y46064D01*
Y46267D01*
Y46470D01*
Y46674D01*
Y46877D01*
Y47080D01*
Y47283D01*
Y47486D01*
X23577D01*
Y47283D01*
D02*
G37*
G36*
X48367D02*
Y47080D01*
Y46877D01*
X44710D01*
Y47080D01*
Y47283D01*
X44913D01*
Y47486D01*
X48367D01*
Y47283D01*
D02*
G37*
G36*
X43694Y45658D02*
Y45454D01*
Y45251D01*
X41458D01*
Y45454D01*
Y45658D01*
Y45861D01*
X43694D01*
Y45658D01*
D02*
G37*
G36*
X39020Y45861D02*
Y45658D01*
Y45454D01*
Y45251D01*
X37394D01*
Y45048D01*
X37191D01*
Y45251D01*
Y45454D01*
Y45658D01*
Y45861D01*
Y46064D01*
X39020D01*
Y45861D01*
D02*
G37*
G36*
X43694Y47283D02*
Y47080D01*
Y46877D01*
X40442D01*
Y46674D01*
Y46470D01*
Y46267D01*
Y46064D01*
Y45861D01*
Y45658D01*
Y45454D01*
Y45251D01*
Y45048D01*
X40646D01*
Y44845D01*
Y44642D01*
X40849D01*
Y44438D01*
X43694D01*
Y44235D01*
Y44032D01*
Y43829D01*
Y43626D01*
X40646D01*
Y43829D01*
X40239D01*
Y44032D01*
X40036D01*
Y44235D01*
Y44438D01*
X39833D01*
Y44642D01*
Y44845D01*
Y45048D01*
Y45251D01*
Y45454D01*
Y45658D01*
Y45861D01*
Y46064D01*
Y46267D01*
Y46470D01*
Y46674D01*
Y46877D01*
Y47080D01*
Y47283D01*
Y47486D01*
X43694D01*
Y47283D01*
D02*
G37*
G36*
X48164Y45861D02*
X48367D01*
Y45658D01*
Y45454D01*
Y45251D01*
Y45048D01*
Y44845D01*
Y44642D01*
Y44438D01*
X48164D01*
Y44235D01*
Y44032D01*
Y43829D01*
X47961D01*
Y43626D01*
X47351D01*
Y43422D01*
X44710D01*
Y43626D01*
Y43829D01*
Y44032D01*
Y44235D01*
X47148D01*
Y44438D01*
X47351D01*
Y44642D01*
X47554D01*
Y44845D01*
Y45048D01*
Y45251D01*
X44710D01*
Y45454D01*
Y45658D01*
Y45861D01*
Y46064D01*
X48164D01*
Y45861D01*
D02*
G37*
G36*
X34550Y47283D02*
Y47080D01*
Y46877D01*
Y46674D01*
Y46470D01*
Y46267D01*
Y46064D01*
Y45861D01*
Y45658D01*
Y45454D01*
Y45251D01*
Y45048D01*
X34753D01*
Y44845D01*
Y44642D01*
X34956D01*
Y44438D01*
X36988D01*
Y44235D01*
Y44032D01*
Y43829D01*
Y43626D01*
Y43422D01*
X34956D01*
Y43626D01*
X34346D01*
Y43829D01*
X34143D01*
Y44032D01*
X33940D01*
Y44235D01*
Y44438D01*
Y44642D01*
Y44845D01*
Y45048D01*
Y45251D01*
Y45454D01*
Y45658D01*
Y45861D01*
Y46064D01*
Y46267D01*
Y46470D01*
Y46674D01*
Y46877D01*
Y47080D01*
Y47283D01*
Y47486D01*
X34550D01*
Y47283D01*
D02*
G37*
D30*
X15224Y45405D02*
G03*
X15224Y45405I-1524J0D01*
G01*
X5697Y20226D02*
X6403D01*
X7676Y18574D02*
Y20226D01*
X6649Y18574D02*
X7676D01*
X4424D02*
Y20226D01*
Y18574D02*
X5451D01*
X9981Y19176D02*
Y19542D01*
X16154Y20700D02*
X17424D01*
X17170Y20065D02*
Y21335D01*
X16408Y20065D02*
X17170Y20700D01*
X16408Y20192D02*
X17170Y20700D01*
X16408Y20319D02*
X17170Y20700D01*
X16408Y20446D02*
X17170Y20700D01*
X16408Y20573D02*
X17170Y20700D01*
X16408Y21335D02*
X17170Y20700D01*
X16408Y21208D02*
X17170Y20700D01*
X16408Y21081D02*
X17170Y20700D01*
X16408Y20954D02*
X17170Y20700D01*
X16408Y20827D02*
X17170Y20700D01*
X16408Y20065D02*
Y21335D01*
X9981Y22224D02*
X15519D01*
X9981Y21858D02*
Y22224D01*
Y19176D02*
X15519D01*
Y19542D01*
Y21858D02*
Y22224D01*
X16202Y44733D02*
Y46077D01*
X11198Y42903D02*
Y43077D01*
Y44733D02*
Y46077D01*
Y47733D02*
Y47907D01*
X16202D01*
Y42903D02*
Y43077D01*
X11198Y42903D02*
X16202D01*
Y47733D02*
Y47907D01*
X13024Y34026D02*
X14051D01*
X13024Y32375D02*
Y34026D01*
X14297Y32375D02*
X15003D01*
X16276D02*
Y34026D01*
X15249D02*
X16276D01*
X18124D02*
X19151D01*
X19397Y32375D02*
X20103D01*
X21376D02*
Y34026D01*
X20349D02*
X21376D01*
X18124Y32375D02*
Y34026D01*
X19024Y20226D02*
X20051D01*
X20297Y18574D02*
X21003D01*
X22276D02*
Y20226D01*
X21249D02*
X22276D01*
X19024Y18574D02*
Y20226D01*
X53829Y19927D02*
Y20326D01*
Y27274D02*
Y27674D01*
X59671D01*
Y19927D02*
Y20326D01*
X53829Y19927D02*
X59671D01*
Y27274D02*
Y27674D01*
X11426Y24024D02*
X13483D01*
X11426Y25337D02*
Y26063D01*
Y27376D02*
X13483D01*
X18124Y39926D02*
X19151D01*
X19397Y38275D02*
X20103D01*
X21376D02*
Y39926D01*
X20349D02*
X21376D01*
X18124Y38275D02*
Y39926D01*
D31*
X6102Y30799D02*
G03*
X6102Y30799I-127J0D01*
G01*
X52813Y28245D02*
G03*
X52813Y28245I-127J0D01*
G01*
X14487Y23541D02*
G03*
X14487Y23541I-127J0D01*
G01*
X45302Y2296D02*
Y14996D01*
X45175Y15123D02*
X45302Y14996D01*
X26506Y15123D02*
X45175D01*
X26506Y2296D02*
X45302D01*
X24093Y6487D02*
X26506D01*
Y2296D02*
Y15123D01*
X24093Y6487D02*
Y11313D01*
X26506D01*
X64941Y18783D02*
X67836D01*
X64915Y34277D02*
X67836D01*
Y18783D02*
Y34277D01*
X64915D02*
X64941Y18783D01*
X24382Y38693D02*
X24128Y38947D01*
X23620D01*
X23366Y38693D01*
Y37678D01*
X23620Y37424D01*
X24128D01*
X24382Y37678D01*
X25905Y38947D02*
X25397Y38693D01*
X24890Y38185D01*
Y37678D01*
X25143Y37424D01*
X25651D01*
X25905Y37678D01*
Y37931D01*
X25651Y38185D01*
X24890D01*
D32*
X6150Y23386D02*
X9350D01*
X6150Y26014D02*
X9350D01*
X24835Y8944D02*
X26105D01*
X17885Y11440D02*
Y15775D01*
X11535D02*
X17885D01*
X11535Y12900D02*
Y15775D01*
X8555Y12900D02*
X11535D01*
X8555Y10400D02*
Y12900D01*
Y4900D02*
Y7400D01*
Y4900D02*
X11535D01*
Y2025D02*
Y4900D01*
Y2025D02*
X17885D01*
Y6360D01*
X53415Y2025D02*
Y6360D01*
Y2025D02*
X59765D01*
Y4900D01*
X62745D01*
Y7400D01*
Y10400D02*
Y12900D01*
X59765D02*
X62745D01*
X59765D02*
Y15775D01*
X53415D02*
X59765D01*
X53415Y11440D02*
Y15775D01*
X25470Y8309D02*
Y9579D01*
X46470Y8255D02*
Y9525D01*
X33403Y30374D02*
X32750D01*
X33076Y30700D02*
Y30047D01*
X27424Y26047D02*
Y26700D01*
X27750Y26374D02*
X27097D01*
X43423Y25996D02*
Y26649D01*
X43749Y26322D02*
X43096D01*
X27423Y33096D02*
Y33749D01*
X27749Y33422D02*
X27096D01*
X27424Y39998D02*
Y40651D01*
X27751Y40325D02*
X27098D01*
X43423Y33096D02*
Y33749D01*
X43749Y33422D02*
X43096D01*
X43424Y40047D02*
Y40700D01*
X43750Y40374D02*
X43097D01*
D33*
X2823Y17243D02*
Y16510D01*
X2090Y17243D01*
X1907D01*
X1724Y17060D01*
Y16693D01*
X1907Y16510D01*
X2823Y17610D02*
Y17976D01*
Y17793D01*
X1724D01*
X1907Y17610D01*
X2823Y18526D02*
Y18893D01*
Y18709D01*
X1724D01*
X1907Y18526D01*
Y19442D02*
X1724Y19626D01*
Y19992D01*
X1907Y20175D01*
X2090D01*
X2274Y19992D01*
Y19809D01*
Y19992D01*
X2457Y20175D01*
X2640D01*
X2823Y19992D01*
Y19626D01*
X2640Y19442D01*
X1907Y20542D02*
X1724Y20725D01*
Y21092D01*
X1907Y21275D01*
X2640D01*
X2823Y21092D01*
Y20725D01*
X2640Y20542D01*
X1907D01*
X2823Y21642D02*
X2090D01*
X1724Y22008D01*
X2090Y22375D01*
X2823D01*
X2274D01*
Y21642D01*
X3007Y22741D02*
Y23474D01*
X1724Y23841D02*
X2823D01*
Y24391D01*
X2640Y24574D01*
X1907D01*
X1724Y24391D01*
Y23841D01*
X2823Y25490D02*
Y25124D01*
X2640Y24941D01*
X2274D01*
X2090Y25124D01*
Y25490D01*
X2274Y25674D01*
X2457D01*
Y24941D01*
X1724Y26773D02*
Y26040D01*
X2823D01*
Y26773D01*
X2274Y26040D02*
Y26407D01*
X2823Y27140D02*
Y27506D01*
Y27323D01*
X1724D01*
Y27140D01*
X2823Y28606D02*
Y28240D01*
X2640Y28056D01*
X2274D01*
X2090Y28240D01*
Y28606D01*
X2274Y28789D01*
X2457D01*
Y28056D01*
X2090Y29889D02*
Y29339D01*
X2274Y29156D01*
X2640D01*
X2823Y29339D01*
Y29889D01*
X1907Y30439D02*
X2090D01*
Y30256D01*
Y30622D01*
Y30439D01*
X2640D01*
X2823Y30622D01*
X2090Y31172D02*
X2823D01*
X2457D01*
X2274Y31355D01*
X2090Y31538D01*
Y31722D01*
X2823Y32455D02*
Y32821D01*
X2640Y33005D01*
X2274D01*
X2090Y32821D01*
Y32455D01*
X2274Y32272D01*
X2640D01*
X2823Y32455D01*
Y33371D02*
X2090D01*
Y33921D01*
X2274Y34104D01*
X2823D01*
Y34471D02*
Y34837D01*
Y34654D01*
X2090D01*
Y34471D01*
X3190Y36120D02*
X2090D01*
Y35571D01*
X2274Y35387D01*
X2640D01*
X2823Y35571D01*
Y36120D01*
X2090Y36487D02*
X2640D01*
X2823Y36670D01*
Y37220D01*
X2090D01*
X2823Y38136D02*
Y37770D01*
X2640Y37587D01*
X2274D01*
X2090Y37770D01*
Y38136D01*
X2274Y38320D01*
X2457D01*
Y37587D01*
X50143Y48026D02*
X49410D01*
Y46927D01*
X50143D01*
X49410Y47476D02*
X49777D01*
X51243Y47660D02*
X50693D01*
X50510Y47476D01*
Y47110D01*
X50693Y46927D01*
X51243D01*
X51793D02*
X52159D01*
X52342Y47110D01*
Y47476D01*
X52159Y47660D01*
X51793D01*
X51609Y47476D01*
Y47110D01*
X51793Y46927D01*
X52709D02*
X53075D01*
X52892D01*
Y48026D01*
X52709D01*
X54175Y46927D02*
X53809D01*
X53625Y47110D01*
Y47476D01*
X53809Y47660D01*
X54175D01*
X54358Y47476D01*
Y47293D01*
X53625D01*
X55825Y46927D02*
X56374D01*
X56558Y47110D01*
X56374Y47293D01*
X56008D01*
X55825Y47476D01*
X56008Y47660D01*
X56558D01*
X56924D02*
Y47110D01*
X57108Y46927D01*
X57657D01*
Y47660D01*
X58024Y46560D02*
Y47660D01*
X58574D01*
X58757Y47476D01*
Y47110D01*
X58574Y46927D01*
X58024D01*
X59673D02*
X59307D01*
X59124Y47110D01*
Y47476D01*
X59307Y47660D01*
X59673D01*
X59857Y47476D01*
Y47293D01*
X59124D01*
X60223Y47660D02*
Y46927D01*
Y47293D01*
X60406Y47476D01*
X60590Y47660D01*
X60773D01*
X61323Y46927D02*
X61689D01*
X61506D01*
Y47660D01*
X61323D01*
X62789Y46927D02*
X62422D01*
X62239Y47110D01*
Y47476D01*
X62422Y47660D01*
X62789D01*
X62972Y47476D01*
Y47293D01*
X62239D01*
X63339Y47660D02*
Y47110D01*
X63522Y46927D01*
X64072D01*
Y47660D01*
X64438D02*
Y46927D01*
Y47293D01*
X64622Y47476D01*
X64805Y47660D01*
X64988D01*
X66088Y46927D02*
X65721D01*
X65538Y47110D01*
Y47476D01*
X65721Y47660D01*
X66088D01*
X66271Y47476D01*
Y47293D01*
X65538D01*
X49593Y44977D02*
Y45893D01*
Y45526D01*
X49410D01*
X49777D01*
X49593D01*
Y45893D01*
X49777Y46076D01*
X50326Y44977D02*
X50693D01*
X50510D01*
Y45710D01*
X50326D01*
X51243Y44977D02*
X51609D01*
X51426D01*
Y46076D01*
X51243D01*
X52159Y44977D02*
X52526D01*
X52342D01*
Y45710D01*
X52159D01*
X53625Y44977D02*
X53259D01*
X53075Y45160D01*
Y45526D01*
X53259Y45710D01*
X53625D01*
X53809Y45526D01*
Y45343D01*
X53075D01*
X54175Y45710D02*
Y44977D01*
Y45343D01*
X54358Y45526D01*
X54542Y45710D01*
X54725D01*
X55825Y44977D02*
X55458D01*
X55275Y45160D01*
Y45526D01*
X55458Y45710D01*
X55825D01*
X56008Y45526D01*
Y45343D01*
X55275D01*
X58024Y44977D02*
X57657D01*
X57474Y45160D01*
Y45526D01*
X57657Y45710D01*
X58024D01*
X58207Y45526D01*
Y45343D01*
X57474D01*
X58574Y44977D02*
X58940D01*
X58757D01*
Y46076D01*
X58574D01*
X60040Y44977D02*
X59673D01*
X59490Y45160D01*
Y45526D01*
X59673Y45710D01*
X60040D01*
X60223Y45526D01*
Y45343D01*
X59490D01*
X61323Y45710D02*
X60773D01*
X60590Y45526D01*
Y45160D01*
X60773Y44977D01*
X61323D01*
X61689Y45710D02*
Y44977D01*
Y45343D01*
X61873Y45526D01*
X62056Y45710D01*
X62239D01*
X62972Y44977D02*
X63339D01*
X63522Y45160D01*
Y45526D01*
X63339Y45710D01*
X62972D01*
X62789Y45526D01*
Y45160D01*
X62972Y44977D01*
X63889D02*
Y45710D01*
X64438D01*
X64622Y45526D01*
Y44977D01*
X64988D02*
X65355D01*
X65172D01*
Y45710D01*
X64988D01*
X66638Y44610D02*
Y45710D01*
X66088D01*
X65905Y45526D01*
Y45160D01*
X66088Y44977D01*
X66638D01*
X67004Y45710D02*
Y45160D01*
X67188Y44977D01*
X67737D01*
Y45710D01*
X68654Y44977D02*
X68287D01*
X68104Y45160D01*
Y45526D01*
X68287Y45710D01*
X68654D01*
X68837Y45526D01*
Y45343D01*
X68104D01*
X6100Y21733D02*
Y22467D01*
X5917Y22650D01*
X5550D01*
X5367Y22467D01*
Y21733D01*
X5550Y21550D01*
X5917D01*
X5733Y21917D02*
X6100Y21550D01*
X5917D02*
X6100Y21733D01*
X6467Y21550D02*
X6833D01*
X6650D01*
Y22650D01*
X6467Y22467D01*
X5967Y27750D02*
Y26650D01*
X6700D01*
X7067D02*
X7433D01*
X7250D01*
Y27750D01*
X7067Y27567D01*
X10884Y18350D02*
Y17250D01*
X11433D01*
X11617Y17433D01*
Y18167D01*
X11433Y18350D01*
X10884D01*
X12716Y17250D02*
X11983D01*
X12716Y17983D01*
Y18167D01*
X12533Y18350D01*
X12167D01*
X11983Y18167D01*
X31784Y21050D02*
Y22150D01*
X32333D01*
X32517Y21967D01*
Y21600D01*
X32333Y21417D01*
X31784D01*
X32150D02*
X32517Y21050D01*
X33616Y22150D02*
X33250Y21967D01*
X32883Y21600D01*
Y21233D01*
X33067Y21050D01*
X33433D01*
X33616Y21233D01*
Y21417D01*
X33433Y21600D01*
X32883D01*
X29084Y20950D02*
Y22050D01*
X29633D01*
X29817Y21867D01*
Y21500D01*
X29633Y21317D01*
X29084D01*
X29450D02*
X29817Y20950D01*
X30916Y22050D02*
X30183D01*
Y21500D01*
X30550Y21683D01*
X30733D01*
X30916Y21500D01*
Y21133D01*
X30733Y20950D01*
X30367D01*
X30183Y21133D01*
X23484Y20150D02*
Y21250D01*
X24033D01*
X24217Y21067D01*
Y20700D01*
X24033Y20517D01*
X23484D01*
X23850D02*
X24217Y20150D01*
X25133D02*
Y21250D01*
X24583Y20700D01*
X25316D01*
X46225Y19050D02*
Y20150D01*
X46775D01*
X46959Y19967D01*
Y19600D01*
X46775Y19417D01*
X46225D01*
X46592D02*
X46959Y19050D01*
X47325D02*
X47692D01*
X47508D01*
Y20150D01*
X47325Y19967D01*
X48241D02*
X48425Y20150D01*
X48791D01*
X48975Y19967D01*
Y19233D01*
X48791Y19050D01*
X48425D01*
X48241Y19233D01*
Y19967D01*
X7500Y47067D02*
X7317Y47250D01*
X6950D01*
X6767Y47067D01*
Y46883D01*
X6950Y46700D01*
X7317D01*
X7500Y46517D01*
Y46333D01*
X7317Y46150D01*
X6950D01*
X6767Y46333D01*
X7867Y46150D02*
X8233D01*
X8050D01*
Y47250D01*
X7867Y47067D01*
X2667Y14050D02*
Y12950D01*
X3217D01*
X3400Y13133D01*
Y13317D01*
X3217Y13500D01*
X2667D01*
X3217D01*
X3400Y13683D01*
Y13867D01*
X3217Y14050D01*
X2667D01*
X3767Y12950D02*
X4133D01*
X3950D01*
Y14050D01*
X3767Y13867D01*
X5830Y35493D02*
Y34577D01*
X6013Y34394D01*
X6380D01*
X6563Y34577D01*
Y35493D01*
X7663Y34394D02*
X6930D01*
X7663Y35127D01*
Y35310D01*
X7479Y35493D01*
X7113D01*
X6930Y35310D01*
X13367Y35633D02*
Y36367D01*
X13183Y36550D01*
X12817D01*
X12634Y36367D01*
Y35633D01*
X12817Y35450D01*
X13183D01*
X13000Y35817D02*
X13367Y35450D01*
X13183D02*
X13367Y35633D01*
X13733Y36367D02*
X13917Y36550D01*
X14283D01*
X14466Y36367D01*
Y36183D01*
X14283Y36000D01*
X14100D01*
X14283D01*
X14466Y35817D01*
Y35633D01*
X14283Y35450D01*
X13917D01*
X13733Y35633D01*
X18752Y35934D02*
Y36667D01*
X18569Y36850D01*
X18202D01*
X18019Y36667D01*
Y35934D01*
X18202Y35751D01*
X18569D01*
X18385Y36117D02*
X18752Y35751D01*
X18569D02*
X18752Y35934D01*
X19668Y35751D02*
Y36850D01*
X19118Y36300D01*
X19851D01*
X18937Y23052D02*
Y21952D01*
X19487D01*
X19670Y22136D01*
Y22869D01*
X19487Y23052D01*
X18937D01*
X20037Y21952D02*
X20403D01*
X20220D01*
Y23052D01*
X20037Y22869D01*
X32723Y33326D02*
Y32226D01*
X33273D01*
X33456Y32409D01*
Y33143D01*
X33273Y33326D01*
X32723D01*
X34556D02*
X34189Y33143D01*
X33823Y32776D01*
Y32409D01*
X34006Y32226D01*
X34372D01*
X34556Y32409D01*
Y32593D01*
X34372Y32776D01*
X33823D01*
X54034Y29950D02*
Y29033D01*
X54217Y28850D01*
X54583D01*
X54767Y29033D01*
Y29950D01*
X55133Y29767D02*
X55317Y29950D01*
X55683D01*
X55866Y29767D01*
Y29583D01*
X55683Y29400D01*
X55500D01*
X55683D01*
X55866Y29217D01*
Y29033D01*
X55683Y28850D01*
X55317D01*
X55133Y29033D01*
X10275Y29296D02*
Y28379D01*
X10458Y28196D01*
X10825D01*
X11008Y28379D01*
Y29296D01*
X11375Y28196D02*
X11741D01*
X11558D01*
Y29296D01*
X11375Y29112D01*
X18757Y41837D02*
Y42570D01*
X18573Y42753D01*
X18207D01*
X18024Y42570D01*
Y41837D01*
X18207Y41654D01*
X18573D01*
X18390Y42020D02*
X18757Y41654D01*
X18573D02*
X18757Y41837D01*
X19856Y41654D02*
X19123D01*
X19856Y42387D01*
Y42570D01*
X19673Y42753D01*
X19307D01*
X19123Y42570D01*
X64885Y35032D02*
Y36131D01*
X65435D01*
X65618Y35948D01*
Y35582D01*
X65435Y35398D01*
X64885D01*
X65985Y35032D02*
X66352D01*
X66168D01*
Y36131D01*
X65985Y35948D01*
X16755Y28948D02*
X16572Y29131D01*
X16205D01*
X16022Y28948D01*
Y28215D01*
X16205Y28031D01*
X16572D01*
X16755Y28215D01*
X17122Y28031D02*
X17488D01*
X17305D01*
Y29131D01*
X17122Y28948D01*
X28834Y26950D02*
Y25850D01*
X29383D01*
X29567Y26033D01*
Y26767D01*
X29383Y26950D01*
X28834D01*
X30666D02*
X29933D01*
Y26400D01*
X30300Y26583D01*
X30483D01*
X30666Y26400D01*
Y26033D01*
X30483Y25850D01*
X30117D01*
X29933Y26033D01*
X44734Y26850D02*
Y25750D01*
X45283D01*
X45467Y25933D01*
Y26667D01*
X45283Y26850D01*
X44734D01*
X45833Y25933D02*
X46017Y25750D01*
X46383D01*
X46566Y25933D01*
Y26667D01*
X46383Y26850D01*
X46017D01*
X45833Y26667D01*
Y26483D01*
X46017Y26300D01*
X46566D01*
X10754Y42092D02*
X10571Y42275D01*
X10204D01*
X10021Y42092D01*
Y41359D01*
X10204Y41176D01*
X10571D01*
X10754Y41359D01*
X11854Y41176D02*
X11121D01*
X11854Y41909D01*
Y42092D01*
X11670Y42275D01*
X11304D01*
X11121Y42092D01*
X14015Y41183D02*
Y42283D01*
X14565D01*
X14748Y42100D01*
Y41733D01*
X14565Y41550D01*
X14015D01*
X14381D02*
X14748Y41183D01*
X15115D02*
X15481D01*
X15298D01*
Y42283D01*
X15115Y42100D01*
X28734Y34050D02*
Y32950D01*
X29283D01*
X29467Y33133D01*
Y33867D01*
X29283Y34050D01*
X28734D01*
X30383Y32950D02*
Y34050D01*
X29833Y33500D01*
X30566D01*
X28934Y41050D02*
Y39950D01*
X29483D01*
X29667Y40133D01*
Y40867D01*
X29483Y41050D01*
X28934D01*
X30033Y40867D02*
X30217Y41050D01*
X30583D01*
X30766Y40867D01*
Y40683D01*
X30583Y40500D01*
X30400D01*
X30583D01*
X30766Y40317D01*
Y40133D01*
X30583Y39950D01*
X30217D01*
X30033Y40133D01*
X34815Y21207D02*
Y22307D01*
X35364D01*
X35548Y22124D01*
Y21757D01*
X35364Y21574D01*
X34815D01*
X35181D02*
X35548Y21207D01*
X35914Y22307D02*
X36647D01*
Y22124D01*
X35914Y21391D01*
Y21207D01*
X37812Y21217D02*
Y22316D01*
X38362D01*
X38545Y22133D01*
Y21767D01*
X38362Y21583D01*
X37812D01*
X38178D02*
X38545Y21217D01*
X38911Y22133D02*
X39095Y22316D01*
X39461D01*
X39645Y22133D01*
Y21950D01*
X39461Y21767D01*
X39645Y21583D01*
Y21400D01*
X39461Y21217D01*
X39095D01*
X38911Y21400D01*
Y21583D01*
X39095Y21767D01*
X38911Y21950D01*
Y22133D01*
X39095Y21767D02*
X39461D01*
X40809Y21217D02*
Y22316D01*
X41359D01*
X41542Y22133D01*
Y21767D01*
X41359Y21583D01*
X40809D01*
X41176D02*
X41542Y21217D01*
X41909Y21400D02*
X42092Y21217D01*
X42458D01*
X42642Y21400D01*
Y22133D01*
X42458Y22316D01*
X42092D01*
X41909Y22133D01*
Y21950D01*
X42092Y21767D01*
X42642D01*
X45334Y32750D02*
Y31650D01*
X45883D01*
X46067Y31833D01*
Y32567D01*
X45883Y32750D01*
X45334D01*
X46433Y32567D02*
X46617Y32750D01*
X46983D01*
X47166Y32567D01*
Y32383D01*
X46983Y32200D01*
X47166Y32017D01*
Y31833D01*
X46983Y31650D01*
X46617D01*
X46433Y31833D01*
Y32017D01*
X46617Y32200D01*
X46433Y32383D01*
Y32567D01*
X46617Y32200D02*
X46983D01*
X45434Y39950D02*
Y38850D01*
X45983D01*
X46167Y39033D01*
Y39767D01*
X45983Y39950D01*
X45434D01*
X46533D02*
X47266D01*
Y39767D01*
X46533Y39033D01*
Y38850D01*
X58814Y34188D02*
X58630Y34371D01*
X58264D01*
X58081Y34188D01*
Y33455D01*
X58264Y33272D01*
X58630D01*
X58814Y33455D01*
X59180Y34188D02*
X59364Y34371D01*
X59730D01*
X59913Y34188D01*
Y34005D01*
X59730Y33821D01*
X59547D01*
X59730D01*
X59913Y33638D01*
Y33455D01*
X59730Y33272D01*
X59364D01*
X59180Y33455D01*
X58820Y39674D02*
X58637Y39857D01*
X58270D01*
X58087Y39674D01*
Y38941D01*
X58270Y38758D01*
X58637D01*
X58820Y38941D01*
X59920Y39857D02*
X59187D01*
Y39307D01*
X59553Y39491D01*
X59736D01*
X59920Y39307D01*
Y38941D01*
X59736Y38758D01*
X59370D01*
X59187Y38941D01*
X53106Y42777D02*
Y43877D01*
X53656D01*
X53839Y43694D01*
Y43327D01*
X53656Y43144D01*
X53106D01*
X53473D02*
X53839Y42777D01*
X54939D02*
X54206D01*
X54939Y43510D01*
Y43694D01*
X54755Y43877D01*
X54389D01*
X54206Y43694D01*
X53817Y34188D02*
X53633Y34371D01*
X53267D01*
X53083Y34188D01*
Y33455D01*
X53267Y33272D01*
X53633D01*
X53817Y33455D01*
X54733Y33272D02*
Y34371D01*
X54183Y33821D01*
X54916D01*
X53090Y38771D02*
Y39870D01*
X53640D01*
X53823Y39687D01*
Y39320D01*
X53640Y39137D01*
X53090D01*
X53457D02*
X53823Y38771D01*
X54190Y39687D02*
X54373Y39870D01*
X54739D01*
X54923Y39687D01*
Y39504D01*
X54739Y39320D01*
X54556D01*
X54739D01*
X54923Y39137D01*
Y38954D01*
X54739Y38771D01*
X54373D01*
X54190Y38954D01*
%TF.MD5,22da947fece17510495081c40b362b00*%
M02*
