%TF.GenerationSoftware,Altium Limited,Altium Designer,20.1.11 (218)*%
G04 Layer_Color=255*
%FSLAX43Y43*%
%MOMM*%
%TF.SameCoordinates,0902B8E9-5046-4627-B484-87D6A3C90C05*%
%TF.FilePolarity,Positive*%
%TF.FileFunction,Pads,Top*%
%TF.Part,Single*%
G01*
G75*
%TA.AperFunction,SMDPad,CuDef*%
%ADD10R,0.533X1.168*%
%ADD11R,1.000X2.000*%
%ADD12R,2.184X1.651*%
%ADD13R,1.400X1.500*%
%ADD14R,1.702X0.991*%
%ADD15R,3.960X5.080*%
%ADD16R,3.960X2.340*%
%ADD17R,0.330X0.305*%
%ADD18R,0.305X0.330*%
%ADD19R,1.100X1.200*%
%ADD20R,1.651X0.432*%
%ADD21R,1.321X0.508*%
%ADD22R,1.200X1.100*%
%ADD23R,1.500X1.400*%
%TA.AperFunction,ComponentPad*%
%ADD26C,1.524*%
%ADD27R,1.524X1.524*%
D10*
X7003Y20416D02*
D03*
X6050Y18384D02*
D03*
X5097Y20416D02*
D03*
X13698Y32184D02*
D03*
X15602D02*
D03*
X14650Y34216D02*
D03*
X18798Y32184D02*
D03*
X20702D02*
D03*
X19750Y34216D02*
D03*
X19698Y18384D02*
D03*
X21603D02*
D03*
X20650Y20416D02*
D03*
X18798Y38084D02*
D03*
X20702D02*
D03*
X19750Y40116D02*
D03*
D11*
X8900Y24700D02*
D03*
X6600D02*
D03*
D12*
X14452Y20700D02*
D03*
X11048D02*
D03*
D13*
X32550Y19740D02*
D03*
Y17886D02*
D03*
X29550Y19740D02*
D03*
Y17886D02*
D03*
X26550Y19740D02*
D03*
Y17886D02*
D03*
X44550Y19740D02*
D03*
Y17886D02*
D03*
X23950Y34060D02*
D03*
Y35914D02*
D03*
X16750Y24700D02*
D03*
Y26554D02*
D03*
X10750Y39714D02*
D03*
Y37860D02*
D03*
X14750D02*
D03*
Y39714D02*
D03*
X35550Y19740D02*
D03*
Y17886D02*
D03*
X38550Y19740D02*
D03*
Y17886D02*
D03*
X41550Y19740D02*
D03*
Y17886D02*
D03*
D14*
X16558Y46905D02*
D03*
Y43905D02*
D03*
X10843D02*
D03*
Y46905D02*
D03*
D15*
X50815Y8900D02*
D03*
X20485D02*
D03*
D16*
X7635D02*
D03*
X63665D02*
D03*
D17*
X6750Y32200D02*
D03*
Y32700D02*
D03*
X8249D02*
D03*
Y32200D02*
D03*
D18*
X6749Y33212D02*
D03*
X7249D02*
D03*
X7749D02*
D03*
X8249D02*
D03*
Y31688D02*
D03*
X7749D02*
D03*
X7249D02*
D03*
X6749D02*
D03*
D19*
X34701Y30699D02*
D03*
X36801D02*
D03*
D20*
X60382Y26725D02*
D03*
Y26075D02*
D03*
Y25425D02*
D03*
Y24775D02*
D03*
Y24125D02*
D03*
Y23475D02*
D03*
Y22825D02*
D03*
Y22175D02*
D03*
Y21525D02*
D03*
Y20875D02*
D03*
X53118Y20875D02*
D03*
Y21525D02*
D03*
Y22175D02*
D03*
Y22825D02*
D03*
Y23475D02*
D03*
Y24125D02*
D03*
Y24775D02*
D03*
Y25425D02*
D03*
Y26075D02*
D03*
Y26725D02*
D03*
D21*
X11159Y24750D02*
D03*
Y26650D02*
D03*
X13750D02*
D03*
Y25700D02*
D03*
Y24750D02*
D03*
D22*
X27749Y22649D02*
D03*
Y24749D02*
D03*
X43749Y22649D02*
D03*
Y24749D02*
D03*
X27749Y29649D02*
D03*
Y31749D02*
D03*
X27750Y36600D02*
D03*
Y38700D02*
D03*
X43749Y29649D02*
D03*
Y31749D02*
D03*
X43749Y36649D02*
D03*
Y38749D02*
D03*
D23*
X58810Y31800D02*
D03*
X60664D02*
D03*
X60690Y37300D02*
D03*
X58836D02*
D03*
X53836Y41300D02*
D03*
X55690D02*
D03*
Y31800D02*
D03*
X53836D02*
D03*
X55690Y37300D02*
D03*
X53836D02*
D03*
D26*
X66591Y25260D02*
D03*
Y20180D02*
D03*
X66185Y22720D02*
D03*
Y27800D02*
D03*
X66591Y30340D02*
D03*
D27*
X66185Y32880D02*
D03*
%TF.MD5,58b30b05a60583be70488b52f6af1351*%
M02*
