M48
;Layer_Color=9474304
;FILE_FORMAT=4:3
METRIC,LZ
;TYPE=PLATED
T1F00S00C0.300
T2F00S00C1.000
T3F00S00C3.200
%
T01
X000675Y00297
X000875
X000465Y00322
Y00341
X001135Y00338
X001085Y00357
X001675Y00377
X002375Y00386
X003005Y00387
X003015Y00318
X003035Y00247
X003475Y00289
X002035Y00297
X0016373Y0029758
X002355Y00188
X005015Y00233
X004895Y00247
Y00271
X004935Y0031
X005715Y00291
X005905
X006095Y00338
X006315Y00257
X006255Y00232
X005765Y00217
Y00203
X006105Y00409
X00085Y00428
T02
X0066591Y002018
X0066185Y002272
X0066591Y002526
X0066185Y00278
X0066591Y003034
X0066185Y003288
T03
X0004Y0004
X0066
Y0042
X0004
M30
